<mxfile host="Electron" agent="Mozilla/5.0 (Windows NT 10.0; Win64; x64) AppleWebKit/537.36 (KHTML, like Gecko) draw.io/26.1.1 Chrome/132.0.6834.210 Electron/34.3.3 Safari/537.36" version="26.1.1">
  <diagram name="Page-1" id="s4k2RjIW4Da8uLRKR86w">
    <mxGraphModel dx="792" dy="1195" grid="1" gridSize="10" guides="1" tooltips="1" connect="1" arrows="1" fold="1" page="1" pageScale="1" pageWidth="827" pageHeight="1169" math="0" shadow="0">
      <root>
        <mxCell id="0" />
        <mxCell id="1" parent="0" />
        <mxCell id="3J1aqu18dO2fuH_E_09p-6" value="" style="edgeStyle=orthogonalEdgeStyle;rounded=0;orthogonalLoop=1;jettySize=auto;html=1;entryX=0.5;entryY=0;entryDx=0;entryDy=0;" parent="1" source="Ln9I3NxxYO5lQv8QJwxf-1" target="3J1aqu18dO2fuH_E_09p-2" edge="1">
          <mxGeometry relative="1" as="geometry" />
        </mxCell>
        <mxCell id="Ln9I3NxxYO5lQv8QJwxf-1" value="Lancer l&#39;application depuis&lt;b&gt; &lt;font style=&quot;color: rgb(255, 51, 51);&quot;&gt;l&#39;icône&lt;/font&gt;&lt;/b&gt; installée" style="rounded=0;whiteSpace=wrap;html=1;fillColor=#FFF2CC;strokeColor=#36393d;" parent="1" vertex="1">
          <mxGeometry x="292.5" y="230" width="245" height="50" as="geometry" />
        </mxCell>
        <mxCell id="3J1aqu18dO2fuH_E_09p-1" value="" style="edgeStyle=orthogonalEdgeStyle;rounded=0;orthogonalLoop=1;jettySize=auto;html=1;" parent="1" source="Ln9I3NxxYO5lQv8QJwxf-2" target="Ln9I3NxxYO5lQv8QJwxf-1" edge="1">
          <mxGeometry relative="1" as="geometry" />
        </mxCell>
        <mxCell id="Ln9I3NxxYO5lQv8QJwxf-2" value="Télécharger l&#39;application (site, &lt;span style=&quot;background-color: rgb(204, 204, 204);&quot;&gt;Apple store, Google Play Store&lt;/span&gt;)" style="rounded=0;whiteSpace=wrap;html=1;fillColor=#ffcccc;strokeColor=#36393d;" parent="1" vertex="1">
          <mxGeometry x="240" y="150" width="350" height="50" as="geometry" />
        </mxCell>
        <mxCell id="3J1aqu18dO2fuH_E_09p-2" value="&lt;div&gt;&lt;br&gt;&lt;/div&gt;&lt;div&gt;&amp;nbsp;Plan d&#39;entrée&lt;/div&gt;&lt;div&gt;&lt;br&gt;&lt;/div&gt;&lt;div&gt;&lt;br&gt;&lt;/div&gt;&lt;div&gt;&lt;br&gt;&lt;/div&gt;&lt;div&gt;&lt;br&gt;&lt;/div&gt;&lt;div&gt;&lt;br&gt;&lt;/div&gt;&lt;div&gt;&lt;br&gt;&lt;/div&gt;&lt;div&gt;&lt;br&gt;&lt;/div&gt;&lt;div&gt;&lt;br&gt;&lt;/div&gt;&lt;div&gt;&lt;br&gt;&lt;/div&gt;&lt;div&gt;&lt;br&gt;&lt;/div&gt;&lt;div&gt;&lt;br&gt;&lt;/div&gt;&lt;div&gt;&lt;br&gt;&lt;/div&gt;&lt;div&gt;&lt;br&gt;&lt;/div&gt;&lt;div&gt;&lt;br&gt;&lt;/div&gt;&lt;div&gt;&lt;br&gt;&lt;/div&gt;" style="rounded=0;whiteSpace=wrap;html=1;align=left;fillColor=#FFF2CC;strokeColor=#36393d;" parent="1" vertex="1">
          <mxGeometry x="168.13" y="310" width="493.75" height="220" as="geometry" />
        </mxCell>
        <mxCell id="3J1aqu18dO2fuH_E_09p-22" style="edgeStyle=orthogonalEdgeStyle;rounded=0;orthogonalLoop=1;jettySize=auto;html=1;" parent="1" source="3J1aqu18dO2fuH_E_09p-3" edge="1">
          <mxGeometry relative="1" as="geometry">
            <mxPoint x="250" y="440" as="targetPoint" />
          </mxGeometry>
        </mxCell>
        <mxCell id="3J1aqu18dO2fuH_E_09p-3" value="&lt;font style=&quot;color: rgb(255, 51, 51);&quot;&gt;&lt;b&gt;Jouer&lt;/b&gt;&lt;/font&gt;" style="rounded=0;whiteSpace=wrap;html=1;fillColor=#FFF2CC;strokeColor=#007FFF;" parent="1" vertex="1">
          <mxGeometry x="210" y="350" width="80" height="40" as="geometry" />
        </mxCell>
        <mxCell id="3J1aqu18dO2fuH_E_09p-11" style="edgeStyle=orthogonalEdgeStyle;rounded=0;orthogonalLoop=1;jettySize=auto;html=1;entryX=0;entryY=0;entryDx=0;entryDy=0;" parent="1" source="3J1aqu18dO2fuH_E_09p-4" target="3J1aqu18dO2fuH_E_09p-8" edge="1">
          <mxGeometry relative="1" as="geometry" />
        </mxCell>
        <mxCell id="3J1aqu18dO2fuH_E_09p-4" value="&lt;b&gt;&lt;font style=&quot;color: rgb(255, 51, 51);&quot;&gt;H&lt;/font&gt;&lt;/b&gt;&lt;b style=&quot;background-color: transparent; color: light-dark(rgb(0, 0, 0), rgb(255, 255, 255));&quot;&gt;&lt;font style=&quot;color: rgb(255, 51, 51);&quot;&gt;istorique&lt;/font&gt;&lt;/b&gt;" style="rounded=0;whiteSpace=wrap;html=1;fillColor=#FFF2CC;strokeColor=#007FFF;" parent="1" vertex="1">
          <mxGeometry x="370" y="350" width="90" height="40" as="geometry" />
        </mxCell>
        <mxCell id="3J1aqu18dO2fuH_E_09p-27" style="edgeStyle=orthogonalEdgeStyle;rounded=0;orthogonalLoop=1;jettySize=auto;html=1;entryX=0.5;entryY=0;entryDx=0;entryDy=0;" parent="1" source="3J1aqu18dO2fuH_E_09p-5" target="3J1aqu18dO2fuH_E_09p-12" edge="1">
          <mxGeometry relative="1" as="geometry">
            <Array as="points">
              <mxPoint x="580" y="560" />
              <mxPoint x="728" y="560" />
            </Array>
          </mxGeometry>
        </mxCell>
        <mxCell id="3J1aqu18dO2fuH_E_09p-5" value="&lt;font style=&quot;color: rgb(255, 51, 51);&quot;&gt;&lt;b&gt;Aide&lt;/b&gt;&lt;/font&gt;" style="rounded=0;whiteSpace=wrap;html=1;fillColor=#FFF2CC;strokeColor=#007FFF;" parent="1" vertex="1">
          <mxGeometry x="540" y="350" width="80" height="40" as="geometry" />
        </mxCell>
        <mxCell id="3J1aqu18dO2fuH_E_09p-10" value="" style="group;fillColor=#CCCCCC;fontColor=#333333;strokeColor=#666666;" parent="1" vertex="1" connectable="0">
          <mxGeometry x="345" y="440" width="140" height="30" as="geometry" />
        </mxCell>
        <mxCell id="3J1aqu18dO2fuH_E_09p-8" value="&lt;font style=&quot;color: rgb(255, 51, 51);&quot;&gt;&lt;b&gt;Outdoor&lt;/b&gt;&lt;/font&gt;" style="rounded=0;whiteSpace=wrap;html=1;fillColor=#CCCCCC;strokeColor=#007FFF;" parent="3J1aqu18dO2fuH_E_09p-10" vertex="1">
          <mxGeometry x="70" width="70" height="30" as="geometry" />
        </mxCell>
        <mxCell id="3J1aqu18dO2fuH_E_09p-9" value="&lt;font style=&quot;color: rgb(255, 51, 51);&quot;&gt;&lt;b&gt;Indoor&lt;/b&gt;&lt;/font&gt;" style="rounded=0;whiteSpace=wrap;html=1;gradientColor=none;fillColor=#CCCCCC;strokeColor=#007FFF;" parent="3J1aqu18dO2fuH_E_09p-10" vertex="1">
          <mxGeometry width="70" height="30" as="geometry" />
        </mxCell>
        <mxCell id="3J1aqu18dO2fuH_E_09p-12" value="Menu d&#39;aide avec rubriques (à définir, et choisir entre texte, intéraction avec un personnage (chatbot), ...)" style="rounded=0;whiteSpace=wrap;html=1;fillColor=#CCCCCC;" parent="1" vertex="1">
          <mxGeometry x="650" y="590" width="156.25" height="90" as="geometry" />
        </mxCell>
        <mxCell id="3J1aqu18dO2fuH_E_09p-16" value="Affichage liste des épreuves triées par :&lt;div style=&quot;text-align: left;&quot;&gt;&lt;span style=&quot;background-color: transparent;&quot;&gt;&lt;font style=&quot;color: rgb(255, 51, 51);&quot;&gt;&lt;b&gt;&amp;nbsp;- Dates&lt;/b&gt;&lt;/font&gt;&lt;/span&gt;&lt;/div&gt;&lt;div style=&quot;text-align: left;&quot;&gt;&lt;b style=&quot;color: rgb(255, 51, 51); background-color: transparent;&quot;&gt;&amp;nbsp;- Classement&lt;/b&gt;&lt;/div&gt;&lt;div style=&quot;text-align: left;&quot;&gt;&lt;font style=&quot;color: rgb(255, 51, 51);&quot;&gt;&lt;b&gt;&amp;nbsp;- Scores individuels&lt;/b&gt;&lt;/font&gt;&lt;/div&gt;" style="rounded=0;whiteSpace=wrap;html=1;align=center;fillColor=#CCCCCC;" parent="1" vertex="1">
          <mxGeometry x="415" y="590" width="225" height="90" as="geometry" />
        </mxCell>
        <mxCell id="3J1aqu18dO2fuH_E_09p-17" style="edgeStyle=orthogonalEdgeStyle;rounded=0;orthogonalLoop=1;jettySize=auto;html=1;entryX=0.5;entryY=0;entryDx=0;entryDy=0;" parent="1" source="3J1aqu18dO2fuH_E_09p-8" target="3J1aqu18dO2fuH_E_09p-16" edge="1">
          <mxGeometry relative="1" as="geometry">
            <mxPoint x="480" y="550" as="targetPoint" />
            <Array as="points">
              <mxPoint x="450" y="560" />
              <mxPoint x="528" y="560" />
            </Array>
          </mxGeometry>
        </mxCell>
        <mxCell id="3J1aqu18dO2fuH_E_09p-18" value="" style="group;fillColor=#ffcccc;strokeColor=#36393d;" parent="1" vertex="1" connectable="0">
          <mxGeometry x="180" y="440" width="140" height="30" as="geometry" />
        </mxCell>
        <mxCell id="3J1aqu18dO2fuH_E_09p-19" value="&lt;font style=&quot;color: rgb(255, 51, 51);&quot;&gt;&lt;b&gt;Outdoor&lt;/b&gt;&lt;/font&gt;" style="rounded=0;whiteSpace=wrap;html=1;fillColor=#FFF2CC;strokeColor=#007FFF;" parent="3J1aqu18dO2fuH_E_09p-18" vertex="1">
          <mxGeometry x="70" width="70" height="30" as="geometry" />
        </mxCell>
        <mxCell id="3J1aqu18dO2fuH_E_09p-20" value="&lt;font style=&quot;color: rgb(255, 51, 51);&quot;&gt;&lt;b&gt;Indoor&lt;/b&gt;&lt;/font&gt;" style="rounded=0;whiteSpace=wrap;html=1;fillColor=#CCCCCC;strokeColor=#007FFF;fontColor=#333333;" parent="3J1aqu18dO2fuH_E_09p-18" vertex="1">
          <mxGeometry width="70" height="30" as="geometry" />
        </mxCell>
        <mxCell id="3J1aqu18dO2fuH_E_09p-23" value="Scénario développé dans un précédent TB, mis de côté pour le moment" style="rounded=0;whiteSpace=wrap;html=1;fillColor=#CCCCCC;strokeColor=#666666;fontColor=#333333;direction=south;" parent="1" vertex="1">
          <mxGeometry x="20" y="590" width="140" height="90" as="geometry" />
        </mxCell>
        <mxCell id="3J1aqu18dO2fuH_E_09p-24" value="" style="edgeStyle=orthogonalEdgeStyle;rounded=0;orthogonalLoop=1;jettySize=auto;html=1;" parent="1" source="3J1aqu18dO2fuH_E_09p-20" target="3J1aqu18dO2fuH_E_09p-23" edge="1">
          <mxGeometry relative="1" as="geometry">
            <Array as="points">
              <mxPoint x="215" y="540" />
              <mxPoint x="85" y="540" />
            </Array>
          </mxGeometry>
        </mxCell>
        <mxCell id="3J1aqu18dO2fuH_E_09p-25" value="&lt;div&gt;&lt;span style=&quot;background-color: transparent; color: light-dark(rgb(0, 0, 0), rgb(255, 255, 255));&quot;&gt;Tableau de bord du jeu&lt;/span&gt;&lt;/div&gt;&lt;div&gt;&lt;br&gt;&lt;/div&gt;&lt;div&gt;&lt;br&gt;&lt;/div&gt;&lt;div&gt;&lt;br&gt;&lt;/div&gt;&lt;br&gt;&lt;div&gt;&lt;br&gt;&lt;/div&gt;&lt;div&gt;&lt;br&gt;&lt;/div&gt;&lt;div&gt;&lt;br&gt;&lt;/div&gt;&lt;div&gt;&lt;br&gt;&lt;/div&gt;&lt;div&gt;&lt;br&gt;&lt;/div&gt;&lt;div&gt;&lt;br&gt;&lt;/div&gt;&lt;div&gt;&lt;br&gt;&lt;/div&gt;&lt;div&gt;&lt;br&gt;&lt;/div&gt;&lt;div&gt;&lt;br&gt;&lt;/div&gt;&lt;div&gt;&lt;br&gt;&lt;/div&gt;" style="rounded=0;whiteSpace=wrap;html=1;align=left;fillColor=#FFF2CC;strokeColor=#36393d;" parent="1" vertex="1">
          <mxGeometry x="90" y="720" width="570" height="220" as="geometry" />
        </mxCell>
        <mxCell id="3J1aqu18dO2fuH_E_09p-26" value="" style="edgeStyle=orthogonalEdgeStyle;rounded=0;orthogonalLoop=1;jettySize=auto;html=1;" parent="1" edge="1">
          <mxGeometry relative="1" as="geometry">
            <mxPoint x="280" y="470" as="sourcePoint" />
            <mxPoint x="170" y="720" as="targetPoint" />
            <Array as="points">
              <mxPoint x="280" y="570" />
              <mxPoint x="170" y="570" />
            </Array>
          </mxGeometry>
        </mxCell>
        <mxCell id="3J1aqu18dO2fuH_E_09p-29" value="Liste de &lt;b&gt;&lt;font style=&quot;color: rgb(255, 51, 51);&quot;&gt;parcours existants&lt;/font&gt;&lt;/b&gt;" style="rounded=0;whiteSpace=wrap;html=1;fillColor=#FFF2CC;strokeColor=#007FFF;" parent="1" vertex="1">
          <mxGeometry x="150" y="760" width="181.87" height="50" as="geometry" />
        </mxCell>
        <mxCell id="3J1aqu18dO2fuH_E_09p-30" value="Charger un &lt;b&gt;&lt;font style=&quot;color: rgb(255, 51, 51);&quot;&gt;nouveau parcours&lt;/font&gt;&lt;/b&gt;" style="rounded=0;whiteSpace=wrap;html=1;fillColor=#CCCCCC;strokeColor=#007FFF;fontColor=#333333;" parent="1" vertex="1">
          <mxGeometry x="410" y="760" width="190" height="50" as="geometry" />
        </mxCell>
        <mxCell id="3J1aqu18dO2fuH_E_09p-33" value="" style="edgeStyle=orthogonalEdgeStyle;rounded=0;orthogonalLoop=1;jettySize=auto;html=1;" parent="1" source="3J1aqu18dO2fuH_E_09p-31" target="3J1aqu18dO2fuH_E_09p-32" edge="1">
          <mxGeometry relative="1" as="geometry" />
        </mxCell>
        <mxCell id="3J1aqu18dO2fuH_E_09p-85" value="&lt;span style=&quot;font-size: 12px; background-color: rgb(251, 251, 251);&quot;&gt;Sélectionner le mode&lt;/span&gt;&lt;div&gt;&lt;span style=&quot;font-size: 12px; background-color: rgb(251, 251, 251);&quot;&gt;d&#39;ordonnancement&lt;/span&gt;&lt;/div&gt;" style="edgeLabel;html=1;align=center;verticalAlign=middle;resizable=0;points=[];" parent="3J1aqu18dO2fuH_E_09p-33" vertex="1" connectable="0">
          <mxGeometry x="-0.0071" y="-2" relative="1" as="geometry">
            <mxPoint x="-63" y="10" as="offset" />
          </mxGeometry>
        </mxCell>
        <mxCell id="3J1aqu18dO2fuH_E_09p-31" value="&lt;u&gt;Menu déroulant pour ordonnancer :&lt;/u&gt;&lt;div style=&quot;text-align: left;&quot;&gt;&amp;nbsp;&lt;b&gt;&lt;font style=&quot;color: rgb(255, 51, 51);&quot;&gt;- Difficulté&lt;/font&gt;&lt;/b&gt;&lt;/div&gt;&lt;div style=&quot;text-align: left;&quot;&gt;&lt;b&gt;&lt;font style=&quot;color: rgb(255, 51, 51);&quot;&gt;&amp;nbsp;- Date de création&lt;/font&gt;&lt;/b&gt;&lt;/div&gt;&lt;div style=&quot;text-align: left;&quot;&gt;&lt;b&gt;&lt;font style=&quot;color: rgb(255, 51, 51);&quot;&gt;&amp;nbsp;- Titres par ordre alphabétique&lt;/font&gt;&lt;/b&gt;&lt;/div&gt;&lt;div style=&quot;text-align: left;&quot;&gt;&lt;span style=&quot;background-color: transparent;&quot;&gt;&lt;b style=&quot;&quot;&gt;&lt;font style=&quot;color: rgb(255, 51, 51);&quot;&gt;&amp;nbsp;- Distance vis-à-vis de l&#39;emplacement courant du joueur&lt;/font&gt;&lt;/b&gt;&lt;/span&gt;&lt;/div&gt;" style="rounded=0;whiteSpace=wrap;html=1;fillColor=#CCCCCC;strokeColor=#36393d;" parent="1" vertex="1">
          <mxGeometry x="393.75" y="810" width="222.5" height="100" as="geometry" />
        </mxCell>
        <mxCell id="3J1aqu18dO2fuH_E_09p-34" style="edgeStyle=orthogonalEdgeStyle;rounded=0;orthogonalLoop=1;jettySize=auto;html=1;entryX=1;entryY=0.5;entryDx=0;entryDy=0;exitX=1;exitY=0.5;exitDx=0;exitDy=0;" parent="1" source="3J1aqu18dO2fuH_E_09p-32" target="3J1aqu18dO2fuH_E_09p-31" edge="1">
          <mxGeometry relative="1" as="geometry">
            <mxPoint x="710" y="850" as="targetPoint" />
            <Array as="points">
              <mxPoint x="730" y="1040" />
              <mxPoint x="730" y="860" />
            </Array>
          </mxGeometry>
        </mxCell>
        <mxCell id="3J1aqu18dO2fuH_E_09p-32" value="Ecran de sélection avec affichage d&#39;une liste de parcours extraite depuis base de données&lt;div&gt;&lt;b&gt;&lt;font style=&quot;color: rgb(255, 51, 51);&quot;&gt;Sélectionner le parcours&lt;/font&gt;&lt;/b&gt;&lt;/div&gt;" style="rounded=0;whiteSpace=wrap;html=1;fillColor=#CCCCCC;strokeColor=#007FFF;" parent="1" vertex="1">
          <mxGeometry x="366.87" y="990" width="276.25" height="100" as="geometry" />
        </mxCell>
        <mxCell id="3J1aqu18dO2fuH_E_09p-35" value="Affichage liste des épreuves triées par :&lt;div style=&quot;text-align: left;&quot;&gt;&lt;span style=&quot;background-color: transparent;&quot;&gt;&lt;font style=&quot;color: rgb(255, 51, 51);&quot;&gt;&lt;b&gt;&amp;nbsp;- Dates&lt;/b&gt;&lt;/font&gt;&lt;/span&gt;&lt;/div&gt;&lt;div style=&quot;text-align: left;&quot;&gt;&lt;b style=&quot;color: rgb(255, 51, 51); background-color: transparent;&quot;&gt;&amp;nbsp;- Classement&lt;/b&gt;&lt;/div&gt;&lt;div style=&quot;text-align: left;&quot;&gt;&lt;font style=&quot;color: rgb(255, 51, 51);&quot;&gt;&lt;b&gt;&amp;nbsp;- Scores individuels&lt;/b&gt;&lt;/font&gt;&lt;/div&gt;" style="rounded=0;whiteSpace=wrap;html=1;align=center;fillColor=#CCCCCC;" parent="1" vertex="1">
          <mxGeometry x="195" y="590" width="225" height="90" as="geometry" />
        </mxCell>
        <mxCell id="3J1aqu18dO2fuH_E_09p-36" style="edgeStyle=orthogonalEdgeStyle;rounded=0;orthogonalLoop=1;jettySize=auto;html=1;entryX=0.5;entryY=0;entryDx=0;entryDy=0;" parent="1" source="3J1aqu18dO2fuH_E_09p-9" target="3J1aqu18dO2fuH_E_09p-35" edge="1">
          <mxGeometry relative="1" as="geometry">
            <Array as="points">
              <mxPoint x="380" y="560" />
              <mxPoint x="307" y="560" />
            </Array>
          </mxGeometry>
        </mxCell>
        <mxCell id="3J1aqu18dO2fuH_E_09p-40" value="" style="edgeStyle=orthogonalEdgeStyle;rounded=0;orthogonalLoop=1;jettySize=auto;html=1;" parent="1" source="3J1aqu18dO2fuH_E_09p-37" target="3J1aqu18dO2fuH_E_09p-39" edge="1">
          <mxGeometry relative="1" as="geometry" />
        </mxCell>
        <mxCell id="3J1aqu18dO2fuH_E_09p-86" value="&lt;span style=&quot;font-size: 12px; background-color: rgb(251, 251, 251);&quot;&gt;Sélectionner le mode&lt;/span&gt;&lt;div&gt;&lt;span style=&quot;font-size: 12px; background-color: rgb(251, 251, 251);&quot;&gt;d&#39;ordonnancement&lt;/span&gt;&lt;/div&gt;" style="edgeLabel;html=1;align=center;verticalAlign=middle;resizable=0;points=[];" parent="3J1aqu18dO2fuH_E_09p-40" vertex="1" connectable="0">
          <mxGeometry x="0.0228" y="1" relative="1" as="geometry">
            <mxPoint x="-62" y="9" as="offset" />
          </mxGeometry>
        </mxCell>
        <mxCell id="3J1aqu18dO2fuH_E_09p-37" value="&lt;u&gt;Menu déroulant pour ordonnancer :&lt;/u&gt;&lt;div style=&quot;text-align: left;&quot;&gt;&amp;nbsp;&lt;b&gt;&lt;font style=&quot;color: rgb(255, 51, 51);&quot;&gt;- Difficulté&lt;/font&gt;&lt;/b&gt;&lt;/div&gt;&lt;div style=&quot;text-align: left;&quot;&gt;&lt;b&gt;&lt;font style=&quot;color: rgb(255, 51, 51);&quot;&gt;&amp;nbsp;- Date de création&lt;/font&gt;&lt;/b&gt;&lt;/div&gt;&lt;div style=&quot;text-align: left;&quot;&gt;&lt;b&gt;&lt;font style=&quot;color: rgb(255, 51, 51);&quot;&gt;&amp;nbsp;- Titres par ordre alphabétique&lt;/font&gt;&lt;/b&gt;&lt;/div&gt;&lt;div style=&quot;text-align: left;&quot;&gt;&lt;span style=&quot;background-color: transparent;&quot;&gt;&lt;b style=&quot;&quot;&gt;&lt;font style=&quot;color: rgb(255, 51, 51);&quot;&gt;&amp;nbsp;- Distance vis-à-vis de l&#39;emplacement courant du joueur&lt;/font&gt;&lt;/b&gt;&lt;/span&gt;&lt;/div&gt;" style="rounded=0;whiteSpace=wrap;html=1;fillColor=#FFF2CC;strokeColor=#36393d;" parent="1" vertex="1">
          <mxGeometry x="129.69" y="810" width="222.5" height="100" as="geometry" />
        </mxCell>
        <mxCell id="3J1aqu18dO2fuH_E_09p-46" value="" style="edgeStyle=orthogonalEdgeStyle;rounded=0;orthogonalLoop=1;jettySize=auto;html=1;entryX=0.5;entryY=0;entryDx=0;entryDy=0;" parent="1" source="3J1aqu18dO2fuH_E_09p-39" target="3J1aqu18dO2fuH_E_09p-45" edge="1">
          <mxGeometry relative="1" as="geometry">
            <Array as="points">
              <mxPoint x="241" y="1190" />
              <mxPoint x="330" y="1190" />
              <mxPoint x="330" y="1240" />
            </Array>
          </mxGeometry>
        </mxCell>
        <mxCell id="3J1aqu18dO2fuH_E_09p-75" style="edgeStyle=orthogonalEdgeStyle;rounded=0;orthogonalLoop=1;jettySize=auto;html=1;entryX=0.5;entryY=0;entryDx=0;entryDy=0;" parent="1" source="3J1aqu18dO2fuH_E_09p-39" target="3J1aqu18dO2fuH_E_09p-42" edge="1">
          <mxGeometry relative="1" as="geometry">
            <Array as="points">
              <mxPoint x="241" y="1190" />
              <mxPoint x="86" y="1190" />
            </Array>
          </mxGeometry>
        </mxCell>
        <mxCell id="3J1aqu18dO2fuH_E_09p-87" value="&lt;b&gt;&lt;font style=&quot;font-size: 12px;&quot;&gt;Activation du parcours&lt;/font&gt;&lt;/b&gt;" style="edgeLabel;html=1;align=center;verticalAlign=middle;resizable=0;points=[];" parent="3J1aqu18dO2fuH_E_09p-75" vertex="1" connectable="0">
          <mxGeometry x="-0.7173" y="1" relative="1" as="geometry">
            <mxPoint x="-22" as="offset" />
          </mxGeometry>
        </mxCell>
        <mxCell id="3J1aqu18dO2fuH_E_09p-39" value="Plan d&#39;entrée du jeu avec affichage de la liste de parcours existants (avec mention déjà joué ou pas)&lt;div&gt;&lt;b&gt;&lt;font style=&quot;color: rgb(255, 51, 51);&quot;&gt;Sélectionner le parcours&lt;/font&gt;&lt;/b&gt;&lt;/div&gt;" style="rounded=0;whiteSpace=wrap;html=1;fillColor=#FFF2CC;strokeColor=#007FFF;" parent="1" vertex="1">
          <mxGeometry x="130" y="990" width="222.19" height="100" as="geometry" />
        </mxCell>
        <mxCell id="3J1aqu18dO2fuH_E_09p-42" value="&lt;font style=&quot;color: rgb(0, 0, 0);&quot;&gt;Déclenchement &lt;/font&gt;&lt;font style=&quot;color: rgb(51, 102, 0);&quot;&gt;&lt;b&gt;automatique &lt;/b&gt;&lt;/font&gt;&lt;font style=&quot;color: rgb(0, 0, 0);&quot;&gt;du Timer&lt;/font&gt;" style="rounded=0;whiteSpace=wrap;html=1;fillColor=#ffcccc;strokeColor=#FF3333;" parent="1" vertex="1">
          <mxGeometry x="19.99999999999994" y="1220" width="132.19" height="60" as="geometry" />
        </mxCell>
        <mxCell id="3J1aqu18dO2fuH_E_09p-48" value="" style="edgeStyle=orthogonalEdgeStyle;rounded=0;orthogonalLoop=1;jettySize=auto;html=1;exitX=1;exitY=0.5;exitDx=0;exitDy=0;entryX=0;entryY=0.5;entryDx=0;entryDy=0;" parent="1" source="3J1aqu18dO2fuH_E_09p-45" target="3J1aqu18dO2fuH_E_09p-47" edge="1">
          <mxGeometry relative="1" as="geometry">
            <mxPoint x="470" y="1270" as="sourcePoint" />
            <mxPoint x="640" y="1270" as="targetPoint" />
            <Array as="points" />
          </mxGeometry>
        </mxCell>
        <mxCell id="3J1aqu18dO2fuH_E_09p-93" value="&lt;b&gt;Désactivation de&lt;/b&gt;&lt;div&gt;&lt;b&gt;l&#39;application&lt;/b&gt;&lt;/div&gt;" style="edgeLabel;html=1;align=center;verticalAlign=middle;resizable=0;points=[];" parent="3J1aqu18dO2fuH_E_09p-48" vertex="1" connectable="0">
          <mxGeometry x="-0.1222" y="-2" relative="1" as="geometry">
            <mxPoint x="8" y="-17" as="offset" />
          </mxGeometry>
        </mxCell>
        <mxCell id="3J1aqu18dO2fuH_E_09p-50" style="edgeStyle=orthogonalEdgeStyle;rounded=0;orthogonalLoop=1;jettySize=auto;html=1;exitX=0.5;exitY=1;exitDx=0;exitDy=0;" parent="1" source="3J1aqu18dO2fuH_E_09p-47" target="3J1aqu18dO2fuH_E_09p-49" edge="1">
          <mxGeometry relative="1" as="geometry">
            <mxPoint x="630" y="1360" as="targetPoint" />
            <Array as="points">
              <mxPoint x="630" y="1300" />
            </Array>
          </mxGeometry>
        </mxCell>
        <mxCell id="3J1aqu18dO2fuH_E_09p-90" value="&lt;font style=&quot;color: rgb(255, 51, 51);&quot;&gt;bonne position&lt;/font&gt;&lt;div&gt;&lt;font style=&quot;color: rgb(255, 51, 51);&quot;&gt;GPS&lt;/font&gt;&lt;span style=&quot;color: rgb(255, 51, 51); background-color: light-dark(#ffffff, var(--ge-dark-color, #121212));&quot;&gt;&amp;nbsp;détectée&lt;/span&gt;&lt;/div&gt;" style="edgeLabel;html=1;align=center;verticalAlign=middle;resizable=0;points=[];" parent="3J1aqu18dO2fuH_E_09p-50" vertex="1" connectable="0">
          <mxGeometry x="0.0175" y="1" relative="1" as="geometry">
            <mxPoint x="-41" y="34" as="offset" />
          </mxGeometry>
        </mxCell>
        <mxCell id="3J1aqu18dO2fuH_E_09p-52" style="edgeStyle=orthogonalEdgeStyle;rounded=0;orthogonalLoop=1;jettySize=auto;html=1;entryX=1;entryY=0.75;entryDx=0;entryDy=0;exitX=0;exitY=0.75;exitDx=0;exitDy=0;" parent="1" source="3J1aqu18dO2fuH_E_09p-47" target="3J1aqu18dO2fuH_E_09p-45" edge="1">
          <mxGeometry relative="1" as="geometry" />
        </mxCell>
        <mxCell id="3J1aqu18dO2fuH_E_09p-94" value="&lt;b&gt;Réactivation de&lt;/b&gt;&lt;div&gt;&lt;b&gt;l&#39;application&lt;/b&gt;&lt;/div&gt;" style="edgeLabel;html=1;align=center;verticalAlign=middle;resizable=0;points=[];" parent="3J1aqu18dO2fuH_E_09p-52" vertex="1" connectable="0">
          <mxGeometry x="-0.0766" y="-2" relative="1" as="geometry">
            <mxPoint x="-13" y="17" as="offset" />
          </mxGeometry>
        </mxCell>
        <mxCell id="3J1aqu18dO2fuH_E_09p-62" style="edgeStyle=orthogonalEdgeStyle;rounded=0;orthogonalLoop=1;jettySize=auto;html=1;entryX=1;entryY=0.5;entryDx=0;entryDy=0;exitX=0;exitY=0.25;exitDx=0;exitDy=0;" parent="1" source="3J1aqu18dO2fuH_E_09p-49" target="3J1aqu18dO2fuH_E_09p-56" edge="1">
          <mxGeometry relative="1" as="geometry">
            <Array as="points">
              <mxPoint x="595" y="1401" />
              <mxPoint x="512" y="1401" />
            </Array>
          </mxGeometry>
        </mxCell>
        <mxCell id="3J1aqu18dO2fuH_E_09p-91" value="&lt;font style=&quot;color: rgb(0, 0, 0);&quot;&gt;&lt;b style=&quot;&quot;&gt;Réactivation de&lt;/b&gt;&lt;/font&gt;&lt;div&gt;&lt;font style=&quot;color: rgb(0, 0, 0);&quot;&gt;&lt;b style=&quot;&quot;&gt;l&#39;application&lt;/b&gt;&lt;/font&gt;&lt;/div&gt;" style="edgeLabel;html=1;align=center;verticalAlign=middle;resizable=0;points=[];" parent="3J1aqu18dO2fuH_E_09p-62" vertex="1" connectable="0">
          <mxGeometry x="-0.1027" y="-1" relative="1" as="geometry">
            <mxPoint x="-8" y="22" as="offset" />
          </mxGeometry>
        </mxCell>
        <mxCell id="3J1aqu18dO2fuH_E_09p-49" value="&lt;font style=&quot;color: rgb(0, 0, 0);&quot;&gt;Alerte pendant environ 3s (son/vibration)&amp;nbsp;&lt;/font&gt;&lt;font style=&quot;color: rgb(51, 102, 0);&quot;&gt;&lt;b&gt;automatique &lt;/b&gt;&lt;/font&gt;&lt;font style=&quot;color: rgb(0, 0, 0);&quot;&gt;si position GPS détectée&lt;/font&gt;" style="rounded=0;whiteSpace=wrap;html=1;fillColor=#ffcccc;strokeColor=#FF3333;" parent="1" vertex="1">
          <mxGeometry x="595.0000000000001" y="1380" width="170" height="80" as="geometry" />
        </mxCell>
        <mxCell id="3J1aqu18dO2fuH_E_09p-60" value="" style="group" parent="1" vertex="1" connectable="0">
          <mxGeometry x="228.68" y="1360" width="200" height="81" as="geometry" />
        </mxCell>
        <mxCell id="3J1aqu18dO2fuH_E_09p-118" value="" style="group" parent="3J1aqu18dO2fuH_E_09p-60" vertex="1" connectable="0">
          <mxGeometry width="221" height="101" as="geometry" />
        </mxCell>
        <mxCell id="3J1aqu18dO2fuH_E_09p-59" style="edgeStyle=orthogonalEdgeStyle;rounded=0;orthogonalLoop=1;jettySize=auto;html=1;entryX=1;entryY=0.75;entryDx=0;entryDy=0;curved=1;exitX=0.75;exitY=1;exitDx=0;exitDy=0;" parent="3J1aqu18dO2fuH_E_09p-118" source="3J1aqu18dO2fuH_E_09p-56" target="3J1aqu18dO2fuH_E_09p-56" edge="1">
          <mxGeometry relative="1" as="geometry">
            <mxPoint x="189.4736842105263" y="102.67605633802818" as="targetPoint" />
            <Array as="points">
              <mxPoint x="150" y="101" />
              <mxPoint x="221" y="101" />
              <mxPoint x="221" y="60" />
              <mxPoint x="200" y="60" />
            </Array>
          </mxGeometry>
        </mxCell>
        <mxCell id="3J1aqu18dO2fuH_E_09p-102" value="&lt;font style=&quot;color: rgb(255, 51, 51);&quot;&gt;Orientation&lt;/font&gt;&lt;div&gt;&lt;font style=&quot;color: rgb(255, 51, 51);&quot;&gt;réactualisée&lt;/font&gt;&lt;/div&gt;" style="edgeLabel;html=1;align=center;verticalAlign=middle;resizable=0;points=[];" parent="3J1aqu18dO2fuH_E_09p-59" vertex="1" connectable="0">
          <mxGeometry x="-0.2447" relative="1" as="geometry">
            <mxPoint x="62" y="-1" as="offset" />
          </mxGeometry>
        </mxCell>
        <mxCell id="3J1aqu18dO2fuH_E_09p-56" value="Ecran du jeu avec observation de l&#39;orientation via la caméra" style="rounded=0;whiteSpace=wrap;html=1;fillColor=#ffcccc;strokeColor=#36393d;" parent="3J1aqu18dO2fuH_E_09p-118" vertex="1">
          <mxGeometry width="200" height="81" as="geometry" />
        </mxCell>
        <mxCell id="3J1aqu18dO2fuH_E_09p-61" value="" style="group" parent="1" vertex="1" connectable="0">
          <mxGeometry x="590" y="1240" width="230" height="91" as="geometry" />
        </mxCell>
        <mxCell id="3J1aqu18dO2fuH_E_09p-47" value="Attente de la bonne position GPS en tâche de fond (autre application ou téléphone en veille)" style="rounded=0;whiteSpace=wrap;html=1;fillColor=#ffcccc;strokeColor=#FF3333;" parent="3J1aqu18dO2fuH_E_09p-61" vertex="1">
          <mxGeometry width="220" height="60" as="geometry" />
        </mxCell>
        <mxCell id="3J1aqu18dO2fuH_E_09p-53" style="edgeStyle=orthogonalEdgeStyle;rounded=0;orthogonalLoop=1;jettySize=auto;html=1;entryX=0.942;entryY=0.992;entryDx=0;entryDy=0;exitX=0.75;exitY=1;exitDx=0;exitDy=0;curved=1;entryPerimeter=0;" parent="3J1aqu18dO2fuH_E_09p-61" edge="1">
          <mxGeometry relative="1" as="geometry">
            <Array as="points">
              <mxPoint x="130" y="80" />
              <mxPoint x="172" y="80" />
            </Array>
            <mxPoint x="130" y="60.48" as="sourcePoint" />
            <mxPoint x="172.24" y="59.99999999999998" as="targetPoint" />
          </mxGeometry>
        </mxCell>
        <mxCell id="3J1aqu18dO2fuH_E_09p-92" value="&lt;font style=&quot;color: rgb(255, 51, 51);&quot;&gt;Coordonnées GPS&lt;/font&gt;&lt;div&gt;&lt;font style=&quot;color: rgb(255, 51, 51);&quot;&gt;réactualisées en continu&lt;/font&gt;&lt;/div&gt;" style="edgeLabel;html=1;align=center;verticalAlign=middle;resizable=0;points=[];" parent="3J1aqu18dO2fuH_E_09p-53" vertex="1" connectable="0">
          <mxGeometry x="-0.2512" relative="1" as="geometry">
            <mxPoint x="19" y="21" as="offset" />
          </mxGeometry>
        </mxCell>
        <mxCell id="3J1aqu18dO2fuH_E_09p-63" style="edgeStyle=orthogonalEdgeStyle;rounded=0;orthogonalLoop=1;jettySize=auto;html=1;entryX=0.5;entryY=0;entryDx=0;entryDy=0;exitX=0.5;exitY=1;exitDx=0;exitDy=0;" parent="1" source="3J1aqu18dO2fuH_E_09p-45" target="3J1aqu18dO2fuH_E_09p-56" edge="1">
          <mxGeometry relative="1" as="geometry">
            <Array as="points">
              <mxPoint x="330" y="1330" />
              <mxPoint x="329" y="1330" />
            </Array>
          </mxGeometry>
        </mxCell>
        <mxCell id="3J1aqu18dO2fuH_E_09p-97" value="&lt;font style=&quot;color: rgb(255, 51, 51);&quot;&gt;bonne position&lt;/font&gt;&lt;div&gt;&lt;font style=&quot;color: rgb(255, 51, 51);&quot;&gt;GPS&lt;/font&gt;&lt;span style=&quot;color: rgb(255, 51, 51); background-color: light-dark(#ffffff, var(--ge-dark-color, #121212));&quot;&gt;&amp;nbsp;détectée&lt;/span&gt;&lt;/div&gt;" style="edgeLabel;html=1;align=center;verticalAlign=middle;resizable=0;points=[];" parent="3J1aqu18dO2fuH_E_09p-63" vertex="1" connectable="0">
          <mxGeometry x="0.0204" relative="1" as="geometry">
            <mxPoint x="-48" y="1" as="offset" />
          </mxGeometry>
        </mxCell>
        <mxCell id="3J1aqu18dO2fuH_E_09p-69" value="" style="edgeStyle=orthogonalEdgeStyle;rounded=0;orthogonalLoop=1;jettySize=auto;html=1;" parent="1" source="3J1aqu18dO2fuH_E_09p-66" target="3J1aqu18dO2fuH_E_09p-68" edge="1">
          <mxGeometry relative="1" as="geometry" />
        </mxCell>
        <mxCell id="3J1aqu18dO2fuH_E_09p-103" value="&lt;font style=&quot;color: rgb(255, 51, 51);&quot;&gt;Délai et alerte après la bonne détection&lt;/font&gt;" style="edgeLabel;html=1;align=center;verticalAlign=middle;resizable=0;points=[];" parent="3J1aqu18dO2fuH_E_09p-69" vertex="1" connectable="0">
          <mxGeometry x="-0.7308" relative="1" as="geometry">
            <mxPoint x="99" y="2" as="offset" />
          </mxGeometry>
        </mxCell>
        <mxCell id="3J1aqu18dO2fuH_E_09p-66" value="Ecran du jeu avec orientation correcte détectée" style="rounded=0;whiteSpace=wrap;html=1;fillColor=#ffcccc;strokeColor=#36393d;" parent="1" vertex="1">
          <mxGeometry x="230" y="1480" width="197.35" height="81" as="geometry" />
        </mxCell>
        <mxCell id="3J1aqu18dO2fuH_E_09p-71" value="" style="edgeStyle=orthogonalEdgeStyle;rounded=0;orthogonalLoop=1;jettySize=auto;html=1;" parent="1" source="3J1aqu18dO2fuH_E_09p-68" target="3J1aqu18dO2fuH_E_09p-70" edge="1">
          <mxGeometry relative="1" as="geometry" />
        </mxCell>
        <mxCell id="3J1aqu18dO2fuH_E_09p-105" value="&lt;b&gt;Sélection objet&lt;/b&gt;" style="edgeLabel;html=1;align=center;verticalAlign=middle;resizable=0;points=[];" parent="3J1aqu18dO2fuH_E_09p-71" vertex="1" connectable="0">
          <mxGeometry x="-0.6747" relative="1" as="geometry">
            <mxPoint x="45" as="offset" />
          </mxGeometry>
        </mxCell>
        <mxCell id="3J1aqu18dO2fuH_E_09p-68" value="Affichage Objet(s) sélectionnable(s) RA sur la caméra" style="rounded=0;whiteSpace=wrap;html=1;fillColor=#ffcccc;strokeColor=#007FFF;" parent="1" vertex="1">
          <mxGeometry x="230" y="1590" width="197.35" height="81" as="geometry" />
        </mxCell>
        <mxCell id="3J1aqu18dO2fuH_E_09p-73" value="" style="edgeStyle=orthogonalEdgeStyle;rounded=0;orthogonalLoop=1;jettySize=auto;html=1;" parent="1" source="3J1aqu18dO2fuH_E_09p-70" target="3J1aqu18dO2fuH_E_09p-72" edge="1">
          <mxGeometry relative="1" as="geometry" />
        </mxCell>
        <mxCell id="3J1aqu18dO2fuH_E_09p-108" value="&lt;font style=&quot;color: rgb(255, 51, 51);&quot;&gt;Réponse correcte&lt;/font&gt;" style="edgeLabel;html=1;align=center;verticalAlign=middle;resizable=0;points=[];" parent="3J1aqu18dO2fuH_E_09p-73" vertex="1" connectable="0">
          <mxGeometry x="-0.7582" y="-1" relative="1" as="geometry">
            <mxPoint x="51" y="3" as="offset" />
          </mxGeometry>
        </mxCell>
        <mxCell id="3J1aqu18dO2fuH_E_09p-77" value="" style="edgeStyle=orthogonalEdgeStyle;rounded=0;orthogonalLoop=1;jettySize=auto;html=1;" parent="1" source="3J1aqu18dO2fuH_E_09p-70" target="3J1aqu18dO2fuH_E_09p-76" edge="1">
          <mxGeometry relative="1" as="geometry">
            <Array as="points">
              <mxPoint x="520" y="1760" />
              <mxPoint x="520" y="1760" />
            </Array>
          </mxGeometry>
        </mxCell>
        <mxCell id="3J1aqu18dO2fuH_E_09p-106" value="&lt;font style=&quot;color: rgb(255, 51, 51);&quot;&gt;Réponse&amp;nbsp;&lt;/font&gt;&lt;span style=&quot;color: rgb(255, 51, 51); background-color: light-dark(#ffffff, var(--ge-dark-color, #121212));&quot;&gt;incorrecte&lt;/span&gt;" style="edgeLabel;html=1;align=center;verticalAlign=middle;resizable=0;points=[];" parent="3J1aqu18dO2fuH_E_09p-77" vertex="1" connectable="0">
          <mxGeometry x="-0.0566" y="1" relative="1" as="geometry">
            <mxPoint x="6" y="-9" as="offset" />
          </mxGeometry>
        </mxCell>
        <mxCell id="3J1aqu18dO2fuH_E_09p-70" value="Affichage question avec mode de saisie spécifique au type de question" style="rounded=0;whiteSpace=wrap;html=1;fillColor=#ffcccc;strokeColor=#36393d;" parent="1" vertex="1">
          <mxGeometry x="230" y="1700" width="197.35" height="81" as="geometry" />
        </mxCell>
        <mxCell id="3J1aqu18dO2fuH_E_09p-74" style="edgeStyle=orthogonalEdgeStyle;rounded=0;orthogonalLoop=1;jettySize=auto;html=1;entryX=0;entryY=0.5;entryDx=0;entryDy=0;curved=1;exitX=0;exitY=0.5;exitDx=0;exitDy=0;" parent="1" source="3J1aqu18dO2fuH_E_09p-72" target="3J1aqu18dO2fuH_E_09p-45" edge="1">
          <mxGeometry relative="1" as="geometry">
            <Array as="points">
              <mxPoint x="170" y="1851" />
              <mxPoint x="170" y="1270" />
            </Array>
          </mxGeometry>
        </mxCell>
        <mxCell id="3J1aqu18dO2fuH_E_09p-109" value="Si &lt;font style=&quot;color: rgb(255, 51, 51);&quot;&gt;temps encore disponible&lt;/font&gt;&lt;div&gt;et &lt;font style=&quot;color: rgb(255, 51, 51);&quot;&gt;questions non répondues&lt;/font&gt;&lt;/div&gt;" style="edgeLabel;html=1;align=center;verticalAlign=middle;resizable=0;points=[];" parent="3J1aqu18dO2fuH_E_09p-74" vertex="1" connectable="0">
          <mxGeometry x="0.4916" y="-19" relative="1" as="geometry">
            <mxPoint x="-44" y="4" as="offset" />
          </mxGeometry>
        </mxCell>
        <mxCell id="3J1aqu18dO2fuH_E_09p-80" value="" style="edgeStyle=orthogonalEdgeStyle;rounded=0;orthogonalLoop=1;jettySize=auto;html=1;entryX=0;entryY=0.5;entryDx=0;entryDy=0;" parent="1" source="3J1aqu18dO2fuH_E_09p-72" target="3J1aqu18dO2fuH_E_09p-81" edge="1">
          <mxGeometry relative="1" as="geometry">
            <mxPoint x="506.03000000000003" y="1850.5" as="targetPoint" />
          </mxGeometry>
        </mxCell>
        <mxCell id="3J1aqu18dO2fuH_E_09p-107" value="&lt;font style=&quot;color: rgb(0, 0, 0);&quot;&gt;Si&lt;/font&gt;&lt;font style=&quot;color: rgb(255, 51, 51);&quot;&gt; dernière question&lt;/font&gt;&lt;div&gt;&lt;font style=&quot;color: rgb(0, 0, 0);&quot;&gt;ou&lt;/font&gt;&lt;font style=&quot;color: rgb(255, 51, 51);&quot;&gt; dépassement du temps de jeu&lt;/font&gt;&lt;/div&gt;" style="edgeLabel;html=1;align=center;verticalAlign=middle;resizable=0;points=[];" parent="3J1aqu18dO2fuH_E_09p-80" vertex="1" connectable="0">
          <mxGeometry x="-0.0139" y="1" relative="1" as="geometry">
            <mxPoint x="1" y="-19" as="offset" />
          </mxGeometry>
        </mxCell>
        <mxCell id="3J1aqu18dO2fuH_E_09p-72" value="Affichage réponse correcte" style="rounded=0;whiteSpace=wrap;html=1;fillColor=#ffcccc;strokeColor=#36393d;" parent="1" vertex="1">
          <mxGeometry x="230" y="1810" width="197.35" height="81" as="geometry" />
        </mxCell>
        <mxCell id="3J1aqu18dO2fuH_E_09p-76" value="Affichage réponse incorrecte&lt;div&gt;Décider de quoi faire&lt;/div&gt;&lt;div&gt;&lt;div style=&quot;text-align: left;&quot;&gt;&lt;span style=&quot;background-color: transparent;&quot;&gt;&lt;b style=&quot;&quot;&gt;&lt;font style=&quot;color: rgb(255, 51, 51);&quot;&gt;- Autre réponse&lt;/font&gt;&lt;/b&gt;&lt;/span&gt;&lt;/div&gt;&lt;span style=&quot;background-color: transparent;&quot;&gt;&lt;div style=&quot;text-align: left;&quot;&gt;&lt;span style=&quot;background-color: transparent;&quot;&gt;&lt;b style=&quot;&quot;&gt;&lt;font style=&quot;color: rgb(255, 51, 51);&quot;&gt;- Abandon&lt;/font&gt;&lt;/b&gt;&lt;/span&gt;&lt;/div&gt;&lt;/span&gt;&lt;/div&gt;" style="rounded=0;whiteSpace=wrap;html=1;fillColor=#CCCCCC;strokeColor=#36393d;" parent="1" vertex="1">
          <mxGeometry x="617.66" y="1700" width="190" height="81" as="geometry" />
        </mxCell>
        <mxCell id="3J1aqu18dO2fuH_E_09p-78" value="&lt;font style=&quot;font-size: 19px; color: rgb(51, 153, 255);&quot;&gt;&lt;b&gt;&lt;u&gt;Scénarisation de l&#39;application&lt;/u&gt;&lt;/b&gt;&lt;/font&gt;" style="text;html=1;align=center;verticalAlign=middle;resizable=0;points=[];autosize=1;strokeColor=none;fillColor=none;" parent="1" vertex="1">
          <mxGeometry x="261.87" y="90" width="290" height="40" as="geometry" />
        </mxCell>
        <mxCell id="3J1aqu18dO2fuH_E_09p-81" value="Sauvegarde automatique du score et retour au tableau de bord" style="rounded=0;whiteSpace=wrap;html=1;fillColor=#CCCCCC;strokeColor=#36393d;" parent="1" vertex="1">
          <mxGeometry x="619.9999999999999" y="1810" width="190" height="81" as="geometry" />
        </mxCell>
        <mxCell id="3J1aqu18dO2fuH_E_09p-88" value="&lt;b&gt;Activation du parcours&lt;/b&gt;" style="text;html=1;align=center;verticalAlign=middle;resizable=0;points=[];autosize=1;strokeColor=none;fillColor=none;" parent="1" vertex="1">
          <mxGeometry x="145" y="1188" width="150" height="30" as="geometry" />
        </mxCell>
        <mxCell id="3J1aqu18dO2fuH_E_09p-89" value="&lt;font style=&quot;color: rgb(255, 51, 51);&quot;&gt;Coordonnées GPS&lt;/font&gt;&lt;div&gt;&lt;font style=&quot;color: rgb(255, 51, 51);&quot;&gt;réactualisées en continu&lt;/font&gt;&lt;/div&gt;" style="text;html=1;align=center;verticalAlign=middle;resizable=0;points=[];autosize=1;strokeColor=none;fillColor=none;" parent="1" vertex="1">
          <mxGeometry x="366.87" y="1180" width="150" height="40" as="geometry" />
        </mxCell>
        <mxCell id="3J1aqu18dO2fuH_E_09p-111" value="Communication avec les autres joueurs" style="whiteSpace=wrap;html=1;fillColor=#CCCCCC;strokeColor=#36393d;" parent="1" vertex="1">
          <mxGeometry x="620" y="1590" width="187.66" height="81" as="geometry" />
        </mxCell>
        <mxCell id="3J1aqu18dO2fuH_E_09p-116" value="" style="edgeStyle=orthogonalEdgeStyle;rounded=0;orthogonalLoop=1;jettySize=auto;html=1;" parent="1" source="3J1aqu18dO2fuH_E_09p-56" target="3J1aqu18dO2fuH_E_09p-66" edge="1">
          <mxGeometry relative="1" as="geometry" />
        </mxCell>
        <mxCell id="asJJvr73Jwtk7SRE9cr4-7" value="&lt;font style=&quot;color: rgb(255, 51, 51);&quot;&gt;bonne orientation&lt;/font&gt;&lt;div&gt;&lt;font style=&quot;color: rgb(255, 51, 51);&quot;&gt;&amp;nbsp;détectée&lt;/font&gt;&lt;/div&gt;" style="edgeLabel;html=1;align=center;verticalAlign=middle;resizable=0;points=[];" parent="3J1aqu18dO2fuH_E_09p-116" vertex="1" connectable="0">
          <mxGeometry x="-0.1875" y="1" relative="1" as="geometry">
            <mxPoint x="-50" y="2" as="offset" />
          </mxGeometry>
        </mxCell>
        <mxCell id="3J1aqu18dO2fuH_E_09p-117" value="" style="group" parent="1" vertex="1" connectable="0">
          <mxGeometry x="218.02" y="1220" width="231.98" height="80" as="geometry" />
        </mxCell>
        <mxCell id="3J1aqu18dO2fuH_E_09p-114" style="edgeStyle=orthogonalEdgeStyle;rounded=0;orthogonalLoop=1;jettySize=auto;html=1;entryX=0.75;entryY=0;entryDx=0;entryDy=0;exitX=1;exitY=0.25;exitDx=0;exitDy=0;curved=1;" parent="3J1aqu18dO2fuH_E_09p-117" source="3J1aqu18dO2fuH_E_09p-45" target="3J1aqu18dO2fuH_E_09p-45" edge="1">
          <mxGeometry relative="1" as="geometry">
            <mxPoint x="239.94306467115197" y="10" as="targetPoint" />
            <Array as="points">
              <mxPoint x="231.98" y="35" />
              <mxPoint x="231.98" />
              <mxPoint x="167.47917616366882" />
              <mxPoint x="167.47917616366882" y="20" />
            </Array>
          </mxGeometry>
        </mxCell>
        <mxCell id="3J1aqu18dO2fuH_E_09p-45" value="Plan avec progression du jeu (avec carte affichée)&lt;div&gt;avec ou sans caméra&lt;/div&gt;" style="rounded=0;whiteSpace=wrap;html=1;fillColor=#ffcccc;strokeColor=#36393d;" parent="3J1aqu18dO2fuH_E_09p-117" vertex="1">
          <mxGeometry y="20" width="222.96581079225592" height="60" as="geometry" />
        </mxCell>
        <mxCell id="asJJvr73Jwtk7SRE9cr4-4" value="1" style="ellipse;whiteSpace=wrap;html=1;aspect=fixed;fillColor=#FFFF66;strokeColor=#36393d;" parent="3J1aqu18dO2fuH_E_09p-117" vertex="1">
          <mxGeometry x="131.98000000000002" width="20" height="20" as="geometry" />
        </mxCell>
        <mxCell id="asJJvr73Jwtk7SRE9cr4-5" value="2" style="ellipse;whiteSpace=wrap;html=1;aspect=fixed;fillColor=#FFFF66;strokeColor=#36393d;" parent="1" vertex="1">
          <mxGeometry x="350" y="1340" width="20" height="20" as="geometry" />
        </mxCell>
        <mxCell id="asJJvr73Jwtk7SRE9cr4-8" value="3" style="ellipse;whiteSpace=wrap;html=1;aspect=fixed;fillColor=#FFFF66;strokeColor=#36393d;" parent="1" vertex="1">
          <mxGeometry x="350" y="1460" width="20" height="20" as="geometry" />
        </mxCell>
        <mxCell id="asJJvr73Jwtk7SRE9cr4-9" value="4" style="ellipse;whiteSpace=wrap;html=1;aspect=fixed;fillColor=#FFFF66;strokeColor=#007FFF;" parent="1" vertex="1">
          <mxGeometry x="427.35" y="1600" width="20" height="20" as="geometry" />
        </mxCell>
        <mxCell id="asJJvr73Jwtk7SRE9cr4-10" value="5" style="ellipse;whiteSpace=wrap;html=1;aspect=fixed;fillColor=#FFFF66;strokeColor=#007FFF;" parent="1" vertex="1">
          <mxGeometry x="427.35" y="1620.5" width="20" height="20" as="geometry" />
        </mxCell>
        <mxCell id="asJJvr73Jwtk7SRE9cr4-11" value="6" style="ellipse;whiteSpace=wrap;html=1;aspect=fixed;fillColor=#FFFF66;strokeColor=#36393d;" parent="1" vertex="1">
          <mxGeometry x="427.35" y="1710.5" width="20" height="20" as="geometry" />
        </mxCell>
        <mxCell id="asJJvr73Jwtk7SRE9cr4-12" value="7" style="ellipse;whiteSpace=wrap;html=1;aspect=fixed;fillColor=#FFFF66;strokeColor=#36393d;" parent="1" vertex="1">
          <mxGeometry x="427.35" y="1730.5" width="20" height="20" as="geometry" />
        </mxCell>
        <mxCell id="asJJvr73Jwtk7SRE9cr4-15" value="&lt;span style=&quot;font-size: 9px;&quot;&gt;NB : les nombres dans les cercles correspondent aux points à atteindre dans le cahier des charge&lt;/span&gt;" style="rounded=0;whiteSpace=wrap;html=1;fillColor=#FFFF66;strokeColor=#36393d;" parent="1" vertex="1">
          <mxGeometry x="620" y="1520" width="170" height="60" as="geometry" />
        </mxCell>
        <mxCell id="T2iaVaruLbyuSW2zaLDV-1" value="tâche de fond" style="rounded=0;whiteSpace=wrap;html=1;strokeColor=#FF3333;" parent="1" vertex="1">
          <mxGeometry x="690" y="10" width="120" height="30" as="geometry" />
        </mxCell>
        <mxCell id="T2iaVaruLbyuSW2zaLDV-2" value="réalisé" style="rounded=0;whiteSpace=wrap;html=1;strokeColor=#000000;fillColor=#d5e8d4;" parent="1" vertex="1">
          <mxGeometry x="690" y="90" width="120" height="30" as="geometry" />
        </mxCell>
        <mxCell id="T2iaVaruLbyuSW2zaLDV-3" value="Existe mais pas final" style="rounded=0;whiteSpace=wrap;html=1;strokeColor=#000000;fillColor=#FFF2CC;" parent="1" vertex="1">
          <mxGeometry x="690" y="130" width="120" height="30" as="geometry" />
        </mxCell>
        <mxCell id="T2iaVaruLbyuSW2zaLDV-4" value="plan non réalisé" style="rounded=0;whiteSpace=wrap;html=1;strokeColor=#000000;fillColor=#F8CECC;" parent="1" vertex="1">
          <mxGeometry x="690" y="170" width="120" height="30" as="geometry" />
        </mxCell>
        <mxCell id="T2iaVaruLbyuSW2zaLDV-5" value="bouton" style="rounded=0;whiteSpace=wrap;html=1;strokeColor=#007FFF;" parent="1" vertex="1">
          <mxGeometry x="690" y="50" width="120" height="30" as="geometry" />
        </mxCell>
        <mxCell id="T2iaVaruLbyuSW2zaLDV-6" value="" style="endArrow=classic;html=1;rounded=0;" parent="1" edge="1">
          <mxGeometry width="50" height="50" relative="1" as="geometry">
            <mxPoint x="700" y="259.43" as="sourcePoint" />
            <mxPoint x="800" y="259.43" as="targetPoint" />
          </mxGeometry>
        </mxCell>
        <mxCell id="T2iaVaruLbyuSW2zaLDV-7" value="&lt;font style=&quot;color: rgb(255, 51, 51);&quot;&gt;Evénement système&lt;/font&gt;" style="edgeLabel;html=1;align=center;verticalAlign=middle;resizable=0;points=[];" parent="T2iaVaruLbyuSW2zaLDV-6" vertex="1" connectable="0">
          <mxGeometry x="-0.3495" y="-1" relative="1" as="geometry">
            <mxPoint x="17" y="-11" as="offset" />
          </mxGeometry>
        </mxCell>
        <mxCell id="T2iaVaruLbyuSW2zaLDV-8" value="" style="endArrow=classic;html=1;rounded=0;" parent="1" edge="1">
          <mxGeometry width="50" height="50" relative="1" as="geometry">
            <mxPoint x="700" y="279.43" as="sourcePoint" />
            <mxPoint x="800" y="279.43" as="targetPoint" />
          </mxGeometry>
        </mxCell>
        <mxCell id="T2iaVaruLbyuSW2zaLDV-9" value="&lt;font style=&quot;color: rgb(0, 0, 0);&quot;&gt;&lt;b style=&quot;&quot;&gt;User Input&lt;/b&gt;&lt;/font&gt;" style="edgeLabel;html=1;align=center;verticalAlign=middle;resizable=0;points=[];" parent="T2iaVaruLbyuSW2zaLDV-8" vertex="1" connectable="0">
          <mxGeometry x="-0.3495" y="-1" relative="1" as="geometry">
            <mxPoint x="17" y="-11" as="offset" />
          </mxGeometry>
        </mxCell>
        <mxCell id="T2iaVaruLbyuSW2zaLDV-10" value="&lt;font style=&quot;color: rgb(255, 51, 51);&quot;&gt;interaction utilisateur&lt;/font&gt;" style="rounded=0;whiteSpace=wrap;html=1;" parent="1" vertex="1">
          <mxGeometry x="690" y="210" width="120" height="30" as="geometry" />
        </mxCell>
        <mxCell id="T2iaVaruLbyuSW2zaLDV-11" style="edgeStyle=orthogonalEdgeStyle;rounded=0;orthogonalLoop=1;jettySize=auto;html=1;entryX=0.768;entryY=-0.016;entryDx=0;entryDy=0;entryPerimeter=0;exitX=0.769;exitY=1.001;exitDx=0;exitDy=0;exitPerimeter=0;strokeColor=#80FF00;" parent="1" source="3J1aqu18dO2fuH_E_09p-37" target="3J1aqu18dO2fuH_E_09p-39" edge="1">
          <mxGeometry relative="1" as="geometry" />
        </mxCell>
        <mxCell id="T2iaVaruLbyuSW2zaLDV-12" value="&lt;font style=&quot;color: rgb(128, 255, 0);&quot;&gt;les filtres sont sur&lt;/font&gt;&lt;div&gt;&lt;font style=&quot;color: rgb(128, 255, 0);&quot;&gt;cet écran&lt;/font&gt;&lt;/div&gt;" style="edgeLabel;html=1;align=center;verticalAlign=middle;resizable=0;points=[];" parent="T2iaVaruLbyuSW2zaLDV-11" vertex="1" connectable="0">
          <mxGeometry x="0.438" y="-2" relative="1" as="geometry">
            <mxPoint x="9" y="-6" as="offset" />
          </mxGeometry>
        </mxCell>
        <mxCell id="T2iaVaruLbyuSW2zaLDV-13" value="" style="endArrow=classic;html=1;rounded=0;strokeColor=#80FF00;" parent="1" edge="1">
          <mxGeometry width="50" height="50" relative="1" as="geometry">
            <mxPoint x="700" y="300" as="sourcePoint" />
            <mxPoint x="800" y="300" as="targetPoint" />
          </mxGeometry>
        </mxCell>
        <mxCell id="T2iaVaruLbyuSW2zaLDV-14" value="&lt;font style=&quot;color: rgb(128, 255, 0);&quot;&gt;&lt;b style=&quot;&quot;&gt;notes&lt;/b&gt;&lt;/font&gt;" style="edgeLabel;html=1;align=center;verticalAlign=middle;resizable=0;points=[];" parent="T2iaVaruLbyuSW2zaLDV-13" vertex="1" connectable="0">
          <mxGeometry x="-0.3495" y="-1" relative="1" as="geometry">
            <mxPoint x="17" y="-11" as="offset" />
          </mxGeometry>
        </mxCell>
      </root>
    </mxGraphModel>
  </diagram>
</mxfile>
